<?xml version="1.0" standalone="no"?>
<!DOCTYPE svg PUBLIC "-//W3C//DTD SVG 20010904//EN"
 "http://www.w3.org/TR/2001/REC-SVG-20010904/DTD/svg10.dtd">
<svg version="1.0" xmlns="http://www.w3.org/2000/svg"
 width="460.000000pt" height="460.000000pt" viewBox="0 0 460.000000 460.000000"
 preserveAspectRatio="xMidYMid meet">
<metadata>
Created by potrace 1.11, written by Peter Selinger 2001-2013
</metadata>
<g transform="translate(0.000000,460.000000) scale(0.100000,-0.100000)"
fill="#000000" stroke="none">
<path d="M1114 4437 c-27 -19 -79 -51 -117 -71 -93 -52 -102 -72 -101 -211 0
-78 5 -121 17 -147 16 -37 16 -37 44 -23 84 44 187 -31 162 -118 -8 -29 -8
-29 11 -12 11 10 17 22 14 26 -3 5 1 7 8 4 7 -2 23 4 35 14 l22 19 -39 79
c-50 102 -70 183 -69 274 1 87 14 128 52 169 38 39 21 38 -39 -3z"/>
<path d="M2732 4423 c2 -13 17 -20 48 -24 25 -4 68 -11 97 -16 29 -6 57 -7 64
-3 11 7 65 -3 76 -14 3 -2 -15 -3 -39 0 -38 3 -35 2 17 -11 33 -8 80 -13 105
-11 25 2 36 1 25 -2 -20 -4 119 -37 200 -46 30 -4 36 -3 22 5 -9 6 -15 14 -13
18 8 13 -116 32 -130 20 -8 -6 -14 -6 -18 0 -3 5 0 11 6 14 7 2 -14 8 -47 12
-33 4 -114 19 -180 32 -127 26 -136 27 -175 20 -14 -2 -17 -2 -7 0 30 8 18 23
-19 23 -28 0 -35 -3 -32 -17z m121 -20 c-7 -2 -19 -2 -25 0 -7 3 -2 5 12 5 14
0 19 -2 13 -5z m44 -9 c-3 -3 -12 -4 -19 -1 -8 3 -5 6 6 6 11 1 17 -2 13 -5z
m356 -71 c-7 -2 -19 -2 -25 0 -7 3 -2 5 12 5 14 0 19 -2 13 -5z m50 -10 c-7
-2 -19 -2 -25 0 -7 3 -2 5 12 5 14 0 19 -2 13 -5z"/>
<path d="M4008 4413 c7 -3 16 -2 19 1 4 3 -2 6 -13 5 -11 0 -14 -3 -6 -6z"/>
<path d="M4068 4403 c12 -2 30 -2 40 0 9 3 -1 5 -23 4 -22 0 -30 -2 -17 -4z"/>
<path d="M4224 4382 c9 -15 71 -32 116 -32 48 0 26 17 -30 23 -25 2 -56 8 -69
12 -17 6 -22 5 -17 -3z"/>
<path d="M2795 4303 c-3 -8 -5 -16 -5 -18 0 -2 19 -3 43 -3 23 0 78 -9 122
-20 94 -24 172 -35 235 -34 34 1 40 -1 25 -8 -17 -7 -14 -9 15 -11 19 -1 51
-2 70 -1 23 2 31 0 22 -6 -23 -15 141 -37 164 -22 16 10 14 10 -14 6 -18 -3
-31 -2 -27 3 3 5 -4 7 -15 4 -12 -3 -20 0 -20 7 0 8 -8 10 -24 6 -14 -3 -28
-2 -31 4 -3 5 -18 10 -33 10 -15 0 -51 6 -79 13 -36 10 -55 11 -62 4 -7 -7
-19 -6 -37 4 -15 8 -36 13 -48 11 -17 -2 -18 -1 -6 7 12 9 10 11 -10 11 -60 2
-95 5 -100 11 -3 3 -44 12 -92 21 -75 13 -88 13 -93 1z"/>
<path d="M3367 4308 c7 -8 10 -17 7 -20 -8 -9 85 -20 98 -12 6 4 8 3 5 -2 -7
-12 255 -59 277 -51 8 3 22 0 29 -8 8 -7 43 -19 78 -25 110 -19 213 -40 247
-51 24 -8 37 -8 47 1 8 7 20 10 27 7 7 -3 4 -6 -7 -7 -38 -2 7 -18 95 -34 47
-9 109 -21 139 -27 43 -8 56 -8 62 3 13 21 11 27 -13 32 -58 12 -240 46 -298
55 -36 6 -99 17 -139 26 -54 10 -77 12 -82 4 -4 -7 -18 -8 -40 -3 l-34 8 35 7
c25 6 16 7 -29 4 -38 -2 -59 0 -51 5 9 6 1 10 -26 15 -21 4 -66 14 -98 23 -45
12 -61 13 -64 4 -2 -7 -8 -12 -14 -12 -6 0 -8 7 -4 15 4 11 -2 15 -22 14 -17
-1 -20 -3 -9 -6 9 -2 17 -8 17 -13 0 -5 -13 -4 -30 1 -17 6 -27 16 -23 21 4 7
-3 9 -21 4 -14 -3 -26 -2 -26 3 0 5 -21 12 -47 16 -27 3 -59 9 -73 12 -21 5
-23 4 -13 -9z m353 -68 c17 -6 9 -7 -25 -3 -27 3 -52 7 -54 9 -8 7 54 2 79 -6z
m273 -57 c-7 -2 -19 -2 -25 0 -7 3 -2 5 12 5 14 0 19 -2 13 -5z m107 -17 c58
-19 30 -20 -35 -2 -27 8 -41 15 -30 15 11 0 40 -6 65 -13z"/>
<path d="M2290 4226 c0 -2 9 -6 20 -9 11 -3 18 -1 14 4 -5 9 -34 13 -34 5z"/>
<path d="M2368 4223 c12 -2 30 -2 40 0 9 3 -1 5 -23 4 -22 0 -30 -2 -17 -4z"/>
<path d="M2468 4223 c6 -2 18 -2 25 0 6 3 1 5 -13 5 -14 0 -19 -2 -12 -5z"/>
<path d="M2159 4213 c-1 -5 -1 -11 0 -15 0 -5 -5 -8 -11 -8 -9 0 -8 -4 2 -10
8 -5 22 -9 30 -9 11 0 10 2 -3 8 -10 4 -18 11 -18 16 0 5 8 12 18 16 17 7 17
8 1 8 -10 1 -19 -2 -19 -6z"/>
<path d="M2085 4200 c-4 -6 6 -10 22 -10 22 0 25 2 13 10 -19 12 -27 12 -35 0z"/>
<path d="M2046 4185 c4 -9 17 -15 33 -14 17 1 20 3 9 6 -10 2 -18 9 -18 14 0
5 -7 9 -15 9 -9 0 -12 -6 -9 -15z"/>
<path d="M1975 4180 c-3 -5 -1 -10 4 -10 6 0 11 5 11 10 0 6 -2 10 -4 10 -3 0
-8 -4 -11 -10z"/>
<path d="M2825 4180 c3 -5 15 -10 26 -10 11 0 17 5 14 10 -3 6 -15 10 -26 10
-11 0 -17 -4 -14 -10z"/>
<path d="M1935 4170 c-3 -5 1 -10 10 -10 9 0 13 5 10 10 -3 6 -8 10 -10 10 -2
0 -7 -4 -10 -10z"/>
<path d="M2269 4171 c11 -7 11 -9 0 -13 -9 -3 -3 -11 17 -21 24 -13 31 -13 31
-2 0 7 -6 11 -13 8 -6 -2 -15 0 -19 6 -3 6 0 11 7 11 9 0 9 3 -2 10 -8 5 -19
10 -25 10 -5 0 -4 -4 4 -9z"/>
<path d="M2700 4165 c-14 -8 -20 -14 -14 -15 5 0 19 7 30 15 24 18 16 19 -16
0z"/>
<path d="M3510 4171 l-25 -7 28 -7 c15 -4 32 -5 37 -2 5 3 36 -4 70 -15 35
-12 71 -18 85 -14 15 4 25 2 25 -5 0 -6 17 -11 40 -11 22 0 48 -4 58 -9 33
-17 113 -31 139 -25 19 5 24 4 18 -6 -5 -9 -2 -10 13 -6 12 4 42 0 67 -9 25
-8 58 -12 73 -9 18 4 23 3 14 -4 -10 -6 -1 -11 30 -15 24 -3 58 -9 77 -13 26
-6 33 -4 29 7 -3 8 -9 14 -14 14 -5 0 -14 4 -21 8 -6 4 -14 1 -16 -5 -4 -9 -8
-10 -14 -2 -12 15 -219 57 -278 56 -40 0 -45 2 -25 8 17 6 8 7 -30 5 -40 -4
-48 -2 -30 4 l25 9 -25 1 c-20 1 -165 27 -300 54 -14 3 -36 2 -50 -2z"/>
<path d="M2228 4163 c7 -3 16 -2 19 1 4 3 -2 6 -13 5 -11 0 -14 -3 -6 -6z"/>
<path d="M2920 4168 c15 -16 48 -26 60 -18 12 7 10 9 -5 8 -11 0 -29 3 -40 7
-11 5 -18 6 -15 3z"/>
<path d="M1868 4153 c7 -3 16 -2 19 1 4 3 -2 6 -13 5 -11 0 -14 -3 -6 -6z"/>
<path d="M2647 4136 c-4 -10 -1 -13 9 -9 15 6 19 23 5 23 -5 0 -11 -7 -14 -14z"/>
<path d="M2993 4142 c-7 -5 1 -15 25 -30 l37 -23 -27 25 c-18 16 -23 26 -15
29 7 3 8 6 2 6 -5 0 -15 -3 -22 -7z"/>
<path d="M1885 4130 c27 -12 43 -12 25 0 -8 5 -22 9 -30 9 -10 0 -8 -3 5 -9z"/>
<path d="M3037 4129 c7 -7 15 -10 18 -7 3 3 -2 9 -12 12 -14 6 -15 5 -6 -5z"/>
<path d="M1866 4112 c-2 -4 -1 -14 4 -22 7 -11 9 -9 7 8 -1 24 -3 26 -11 14z"/>
<path d="M1919 4103 c-13 -17 -13 -17 6 -3 11 8 22 16 24 17 2 2 0 3 -6 3 -6
0 -17 -8 -24 -17z"/>
<path d="M2565 4109 c-11 -16 -1 -19 13 -3 7 8 8 14 3 14 -5 0 -13 -5 -16 -11z"/>
<path d="M3065 4110 c-4 -6 1 -7 11 -3 11 4 15 2 11 -4 -8 -13 37 -23 55 -12
10 7 10 9 -2 10 -8 1 -20 1 -27 0 -6 -1 -14 3 -18 9 -8 13 -22 13 -30 0z"/>
<path d="M1695 4100 c-3 -5 -2 -10 4 -10 5 0 13 5 16 10 3 6 2 10 -4 10 -5 0
-13 -4 -16 -10z"/>
<path d="M2365 4101 c-4 -7 0 -8 10 -5 9 4 15 3 14 -2 -3 -20 2 -34 12 -34 6
0 7 5 2 13 -4 6 -8 16 -8 21 0 14 -22 19 -30 7z"/>
<path d="M1730 4090 c0 -5 5 -10 10 -10 6 0 10 5 10 10 0 6 -4 10 -10 10 -5 0
-10 -4 -10 -10z"/>
<path d="M2584 4078 l-19 -23 23 19 c21 18 27 26 19 26 -2 0 -12 -10 -23 -22z"/>
<path d="M1641 4076 c-21 -12 -21 -14 -6 -20 10 -3 20 -4 23 -1 3 3 -1 5 -8 5
-9 0 -7 5 6 15 24 18 17 19 -15 1z"/>
<path d="M1874 4058 l-19 -23 23 19 c21 18 27 26 19 26 -2 0 -12 -10 -23 -22z"/>
<path d="M3086 4048 c16 -18 30 -35 32 -37 1 -2 2 1 2 7 0 12 -46 62 -57 62
-4 0 6 -15 23 -32z"/>
<path d="M3195 4060 c27 -12 43 -12 25 0 -8 5 -22 9 -30 9 -10 0 -8 -3 5 -9z"/>
<path d="M2421 4049 c-1 -21 35 -54 44 -39 4 6 1 9 -7 8 -7 -2 -12 3 -10 10 1
8 -2 11 -7 8 -5 -4 -12 2 -14 11 -4 15 -5 15 -6 2z"/>
<path d="M3147 4040 c8 -30 18 -32 19 -4 1 14 -4 24 -11 24 -8 0 -11 -8 -8
-20z"/>
<path d="M1575 4040 c3 -5 8 -10 11 -10 2 0 4 5 4 10 0 6 -5 10 -11 10 -5 0
-7 -4 -4 -10z"/>
<path d="M1781 4024 c0 -11 3 -14 6 -6 3 7 2 16 -1 19 -3 4 -6 -2 -5 -13z"/>
<path d="M2538 4022 c3 -10 1 -13 -6 -8 -8 5 -10 2 -6 -9 7 -18 7 -18 22 11 8
16 8 21 -3 21 -7 0 -11 -7 -7 -15z"/>
<path d="M4301 4023 c0 -12 5 -24 12 -26 9 -4 9 -8 1 -14 -7 -4 -11 -27 -10
-51 0 -24 -5 -46 -11 -50 -10 -6 -10 -17 -2 -46 6 -21 12 -36 14 -34 2 2 6 29
8 60 3 31 10 65 16 76 8 15 8 22 -2 26 -9 5 -9 7 1 12 6 3 12 17 12 31 0 21
-3 23 -14 14 -11 -10 -15 -8 -19 6 -4 15 -5 14 -6 -4z"/>
<path d="M1535 4020 c-3 -6 1 -7 9 -4 18 7 21 14 7 14 -6 0 -13 -4 -16 -10z"/>
<path d="M3280 4009 c0 -5 5 -7 10 -4 6 3 10 8 10 11 0 2 -4 4 -10 4 -5 0 -10
-5 -10 -11z"/>
<path d="M1481 3996 l-24 -14 22 -7 c13 -4 28 -2 33 3 8 8 4 9 -13 5 -24 -5
-24 -5 -4 10 24 20 18 21 -14 3z"/>
<path d="M3130 4001 c0 -6 4 -13 10 -16 6 -3 7 1 4 9 -7 18 -14 21 -14 7z"/>
<path d="M3310 4001 c0 -5 14 -14 30 -20 17 -5 30 -8 30 -6 0 3 -13 11 -30 20
-16 9 -30 11 -30 6z"/>
<path d="M1825 3989 c-4 -6 -5 -12 -2 -15 2 -3 7 2 10 11 7 17 1 20 -8 4z"/>
<path d="M1420 3960 c0 -5 -12 -16 -27 -24 -16 -8 -23 -15 -16 -16 7 0 25 11
40 25 15 13 22 25 16 25 -7 0 -13 -4 -13 -10z"/>
<path d="M2482 3951 c9 -14 14 -16 24 -7 14 13 13 15 -14 21 -18 3 -20 1 -10
-14z"/>
<path d="M3150 3940 c6 -11 12 -20 14 -20 2 0 2 9 -1 20 -3 11 -9 20 -15 20
-5 0 -4 -9 2 -20z"/>
<path d="M3400 3952 c0 -12 19 -26 26 -19 2 2 -2 10 -11 17 -9 8 -15 8 -15 2z"/>
<path d="M1791 3929 c0 -13 -3 -42 -6 -64 -4 -33 -2 -31 10 14 10 33 12 58 6
64 -5 5 -9 0 -10 -14z"/>
<path d="M3370 3930 c0 -5 5 -10 11 -10 5 0 7 5 4 10 -3 6 -8 10 -11 10 -2 0
-4 -4 -4 -10z"/>
<path d="M3176 3915 c-9 -26 -7 -32 5 -12 6 10 9 21 6 23 -2 3 -7 -2 -11 -11z"/>
<path d="M3459 3917 c6 -8 7 -18 3 -22 -4 -5 -1 -5 6 -1 10 6 10 11 1 22 -6 8
-14 14 -16 14 -3 0 0 -6 6 -13z"/>
<path d="M2651 3866 c-33 -18 -50 -53 -51 -104 0 -76 37 -122 97 -122 31 1 51
13 76 50 35 51 9 148 -48 174 -39 19 -43 19 -74 2z m87 -119 c3 -31 0 -37 -16
-37 -22 0 -36 37 -26 65 12 30 39 12 42 -28z"/>
<path d="M2308 3854 c-58 -31 -62 -144 -6 -196 35 -32 58 -35 98 -11 36 21 50
52 50 108 0 35 -6 52 -31 80 -34 39 -65 44 -111 19z m113 -88 c8 -17 8 -29 0
-45 -14 -25 -27 -27 -35 -5 -21 55 11 102 35 50z"/>
<path d="M3547 3840 c10 -11 22 -20 27 -20 5 0 1 9 -9 20 -10 11 -22 20 -26
20 -5 0 -1 -9 8 -20z"/>
<path d="M1240 3829 c0 -4 8 -9 18 -11 10 -3 19 0 19 6 0 7 -9 12 -19 12 -10
0 -18 -3 -18 -7z"/>
<path d="M3520 3821 c0 -10 19 -25 25 -20 1 2 -3 10 -11 17 -8 7 -14 8 -14 3z"/>
<path d="M4267 3784 c-3 -20 -4 -50 -1 -68 3 -22 2 -25 -4 -12 -6 13 -13 -12
-26 -85 -15 -87 -32 -174 -72 -359 l-6 -25 -19 25 c-10 14 -23 41 -29 60 -5
20 -18 45 -29 56 -10 11 -22 30 -25 42 -4 12 -12 22 -17 22 -6 0 -7 5 -3 12 4
6 0 16 -9 23 -9 7 -23 27 -31 46 -8 19 -18 32 -23 30 -4 -2 -14 9 -22 25 -8
16 -20 33 -28 37 -7 4 -13 12 -13 17 0 13 -32 50 -43 50 -10 0 42 -71 60 -83
7 -4 13 -13 13 -18 0 -6 10 -25 23 -42 48 -68 156 -267 163 -302 1 -5 12 -44
24 -85 53 -180 63 -247 64 -435 1 -208 -19 -345 -79 -532 -31 -99 -93 -243
-128 -298 -44 -70 -78 -122 -87 -133 -6 -7 -8 -17 -4 -24 4 -6 3 -8 -4 -4 -6
3 -14 0 -19 -8 -15 -26 -195 -233 -214 -246 -5 -3 -4 -11 0 -18 10 -16 163 5
159 22 -3 11 18 41 90 128 17 22 32 44 32 49 0 5 10 14 23 19 21 8 20 9 -12
16 l-34 7 22 18 c12 10 28 32 36 51 7 18 25 48 39 67 14 19 26 42 26 50 1 14
3 13 14 -2 12 -16 14 -15 26 13 7 16 16 28 20 25 5 -3 10 0 12 7 2 6 12 -14
22 -46 26 -81 103 -220 156 -279 45 -50 106 -86 148 -87 l22 0 0 260 c0 285
-1 290 -62 378 -40 57 -126 142 -143 142 -7 0 -18 7 -25 15 -10 12 -10 15 0
15 10 0 10 3 1 14 -10 12 -8 13 10 9 15 -4 20 -3 15 5 -4 7 -4 12 -1 12 8 0
67 -40 75 -51 3 -3 28 -32 55 -64 28 -31 55 -67 62 -79 11 -19 12 -17 13 22 0
23 -4 42 -10 42 -5 0 -10 6 -10 13 0 12 -29 41 -110 109 -8 7 -28 19 -43 25
-34 16 -49 53 -37 90 5 15 14 78 20 138 6 61 20 155 30 210 10 55 26 145 35
200 10 55 22 118 28 140 6 22 11 53 13 69 2 28 2 28 -46 -19 -44 -44 -48 -52
-60 -122 -6 -42 -19 -99 -27 -127 l-16 -51 -13 50 c-7 28 -14 61 -14 75 0 14
-9 40 -18 58 -15 27 -17 46 -11 114 4 44 5 88 2 97 -4 13 -3 14 5 2 13 -19 26
40 26 122 1 32 3 52 5 45 4 -13 38 129 45 193 3 20 10 55 16 77 11 33 10 44
-2 61 -15 21 -15 21 -21 -15z m23 -24 c0 -5 -4 -10 -10 -10 -5 0 -10 5 -10 10
0 6 5 10 10 10 6 0 10 -4 10 -10z m-53 -222 c-3 -8 -6 -5 -6 6 -1 11 2 17 5
13 3 -3 4 -12 1 -19z m-25 -130 c-8 -8 -9 -4 -5 13 4 13 8 18 11 10 2 -7 -1
-18 -6 -23z m-2 -78 c0 -5 -4 -10 -10 -10 -5 0 -10 5 -10 10 0 6 5 10 10 10 6
0 10 -4 10 -10z"/>
<path d="M3623 3775 c19 -19 38 -35 42 -35 5 0 -6 16 -25 35 -19 19 -38 35
-42 35 -5 0 6 -16 25 -35z"/>
<path d="M1174 3778 l-19 -23 23 19 c21 18 27 26 19 26 -2 0 -12 -10 -23 -22z"/>
<path d="M1773 3760 c0 -25 2 -35 4 -22 2 12 2 32 0 45 -2 12 -4 2 -4 -23z"/>
<path d="M1130 3745 c-11 -13 -10 -14 4 -9 9 3 16 10 16 15 0 13 -6 11 -20 -6z"/>
<path d="M3816 3725 c26 -35 44 -45 44 -24 0 5 -4 7 -10 4 -5 -3 -15 5 -21 19
-7 14 -18 27 -26 30 -7 3 -2 -10 13 -29z"/>
<path d="M3180 3715 c0 -8 4 -15 8 -15 5 0 9 7 9 15 0 8 -4 15 -9 15 -4 0 -8
-7 -8 -15z"/>
<path d="M3686 3716 c3 -8 18 -22 32 -32 27 -17 27 -17 -2 15 -33 35 -38 37
-30 17z"/>
<path d="M3308 3713 c7 -3 16 -2 19 1 4 3 -2 6 -13 5 -11 0 -14 -3 -6 -6z"/>
<path d="M1069 3683 c-13 -17 -13 -17 6 -3 11 8 22 16 24 17 2 2 0 3 -6 3 -6
0 -17 -8 -24 -17z"/>
<path d="M1775 3690 c-3 -5 -1 -10 4 -10 6 0 11 5 11 10 0 6 -2 10 -4 10 -3 0
-8 -4 -11 -10z"/>
<path d="M1765 3660 c-3 -6 1 -7 9 -4 18 7 21 14 7 14 -6 0 -13 -4 -16 -10z"/>
<path d="M3730 3650 c0 -5 5 -10 11 -10 5 0 7 5 4 10 -3 6 -8 10 -11 10 -2 0
-4 -4 -4 -10z"/>
<path d="M1011 3628 c-13 -20 -12 -22 1 -11 8 7 17 11 20 8 2 -3 5 2 5 10 0
21 -10 19 -26 -7z"/>
<path d="M3330 3646 c0 -2 7 -7 16 -10 8 -3 12 -2 9 4 -6 10 -25 14 -25 6z"/>
<path d="M3762 3640 c2 -8 13 -23 26 -33 13 -11 21 -26 18 -34 -3 -8 -1 -11 4
-8 16 10 12 22 -21 57 -16 18 -29 26 -27 18z"/>
<path d="M1680 3623 c-13 -15 -12 -16 4 -10 10 4 20 7 22 7 2 0 4 5 4 10 0 15
-13 12 -30 -7z"/>
<path d="M3375 3630 c9 -15 96 -52 103 -45 4 3 -4 8 -16 12 -12 3 -19 10 -15
16 3 6 1 7 -5 3 -6 -4 -26 0 -43 9 -17 10 -28 12 -24 5z"/>
<path d="M865 3608 c-11 -11 -21 -14 -23 -9 -2 6 -8 11 -14 11 -6 0 -8 -6 -5
-14 4 -9 -3 -16 -19 -20 -14 -4 -22 -11 -19 -16 3 -6 -1 -10 -10 -10 -9 0 -13
-5 -10 -11 5 -7 15 -5 32 6 24 16 24 16 13 -7 -9 -18 -5 -16 14 7 14 17 35 40
47 53 27 27 22 37 -6 10z"/>
<path d="M964 3577 c-42 -47 -46 -55 -33 -63 7 -4 9 -3 6 3 -4 6 0 14 8 17 8
3 14 11 13 18 -2 7 3 12 10 10 8 -1 11 2 8 7 -4 5 0 11 6 14 7 2 10 7 7 11 -3
3 -14 -4 -25 -17z"/>
<path d="M2520 3583 c-166 -57 -233 -231 -144 -374 45 -72 105 -100 218 -101
104 -1 162 34 219 132 28 49 32 63 32 135 0 70 -4 85 -27 118 -63 93 -185 130
-298 90z m152 -100 c27 -24 24 -94 -4 -120 -32 -28 -53 -34 -87 -22 -102 36
-63 181 43 164 16 -3 38 -13 48 -22z"/>
<path d="M1596 3575 c-11 -8 -16 -15 -10 -15 5 0 18 7 28 15 11 8 16 15 10 15
-5 0 -18 -7 -28 -15z"/>
<path d="M3490 3571 c0 -5 7 -11 14 -14 10 -4 13 -1 9 9 -6 15 -23 19 -23 5z"/>
<path d="M730 3540 c0 -5 5 -10 10 -10 6 0 10 5 10 10 0 6 -4 10 -10 10 -5 0
-10 -4 -10 -10z"/>
<path d="M655 3525 c-39 -14 -40 -14 -5 -8 41 7 82 22 60 22 -8 0 -33 -7 -55
-14z"/>
<path d="M3557 3529 c7 -7 15 -10 18 -7 3 3 -2 9 -12 12 -14 6 -15 5 -6 -5z"/>
<path d="M3840 3529 c0 -5 5 -7 10 -4 6 3 10 1 10 -4 0 -6 5 -11 11 -11 8 0 8
5 -1 15 -14 17 -30 20 -30 4z"/>
<path d="M1475 3510 c-3 -5 -2 -10 4 -10 5 0 13 5 16 10 3 6 2 10 -4 10 -5 0
-13 -4 -16 -10z"/>
<path d="M3620 3492 c0 -12 19 -26 26 -19 2 2 -2 10 -11 17 -9 8 -15 8 -15 2z"/>
<path d="M3845 3491 c-3 -5 -2 -12 3 -15 5 -3 9 1 9 9 0 17 -3 19 -12 6z"/>
<path d="M761 3463 c-10 -26 -10 -27 4 -9 8 11 15 23 15 28 0 15 -7 8 -19 -19z"/>
<path d="M1439 3473 c-13 -16 -12 -17 4 -4 9 7 17 15 17 17 0 8 -8 3 -21 -13z"/>
<path d="M1383 3469 c9 -5 17 -14 17 -19 0 -5 -8 -7 -17 -4 -15 5 -15 4 -3 -4
10 -8 18 -7 28 1 12 9 11 13 -4 24 -10 7 -23 13 -28 13 -6 0 -3 -5 7 -11z"/>
<path d="M565 3463 c-49 -11 -63 -85 -20 -105 37 -17 86 1 98 35 8 24 5 33
-14 53 -23 24 -28 26 -64 17z"/>
<path d="M1318 3463 c7 -3 16 -2 19 1 4 3 -2 6 -13 5 -11 0 -14 -3 -6 -6z"/>
<path d="M859 3443 c-13 -16 -12 -17 4 -4 9 7 17 15 17 17 0 8 -8 3 -21 -13z"/>
<path d="M3667 3444 c3 -8 8 -12 11 -10 3 3 11 1 19 -5 7 -7 13 -7 13 -2 0 5
-11 15 -25 21 -20 9 -23 9 -18 -4z"/>
<path d="M3912 3446 c7 -8 15 -12 17 -11 5 6 -10 25 -20 25 -5 0 -4 -6 3 -14z"/>
<path d="M1226 3441 c-3 -5 2 -15 12 -22 15 -12 16 -12 5 2 -7 9 -10 19 -6 22
3 4 4 7 0 7 -3 0 -8 -4 -11 -9z"/>
<path d="M3860 3446 c0 -2 7 -9 15 -16 9 -7 15 -8 15 -2 0 5 -7 12 -15 16 -8
3 -15 4 -15 2z"/>
<path d="M3936 3407 c3 -10 9 -15 12 -12 3 3 0 11 -7 18 -10 9 -11 8 -5 -6z"/>
<path d="M822 3375 c-6 -14 -16 -25 -22 -25 -5 0 -10 -5 -10 -10 0 -18 38 8
45 31 10 30 0 33 -13 4z"/>
<path d="M1297 3389 c7 -7 15 -10 18 -7 3 3 -2 9 -12 12 -14 6 -15 5 -6 -5z"/>
<path d="M1317 3365 c-10 -14 -14 -25 -10 -25 4 0 16 12 26 25 10 14 14 25 10
25 -4 0 -16 -12 -26 -25z"/>
<path d="M173 3365 c-27 -19 -34 -49 -17 -73 34 -49 114 -29 114 28 0 53 -51
77 -97 45z"/>
<path d="M3758 3359 c12 -14 22 -30 22 -36 0 -5 10 -18 23 -29 22 -19 22 -19
5 2 -10 11 -18 25 -18 31 0 5 -12 20 -27 34 l-28 24 23 -26z"/>
<path d="M3954 3349 c1 -25 17 -32 33 -14 5 4 2 5 -6 0 -11 -6 -13 -4 -8 9 4
9 3 15 -2 11 -5 -3 -11 1 -14 7 -2 7 -4 1 -3 -13z"/>
<path d="M1283 3338 c3 -9 1 -19 -6 -22 -9 -3 -9 -5 0 -5 18 -1 23 13 11 29
-8 12 -9 12 -5 -2z"/>
<path d="M3805 3320 c3 -5 8 -10 11 -10 2 0 4 5 4 10 0 6 -5 10 -11 10 -5 0
-7 -4 -4 -10z"/>
<path d="M1128 3303 c7 -3 16 -2 19 1 4 3 -2 6 -13 5 -11 0 -14 -3 -6 -6z"/>
<path d="M767 3293 c-4 -3 -7 -14 -7 -23 0 -9 -9 -25 -20 -35 -21 -19 -26 -35
-11 -35 5 0 12 8 15 18 12 33 33 62 40 55 4 -4 4 0 0 10 -7 19 -8 20 -17 10z"/>
<path d="M1185 3290 l-40 -7 43 -2 c23 0 42 4 42 9 0 6 -1 9 -2 9 -2 -1 -21
-5 -43 -9z"/>
<path d="M1250 3286 c0 -8 -6 -17 -12 -19 -10 -4 -10 -6 -1 -6 7 -1 17 8 23
19 7 14 7 20 0 20 -5 0 -10 -6 -10 -14z"/>
<path d="M4007 3265 c-4 -8 -3 -16 1 -19 4 -3 9 4 9 15 2 23 -3 25 -10 4z"/>
<path d="M1128 3253 c7 -3 16 -2 19 1 4 3 -2 6 -13 5 -11 0 -14 -3 -6 -6z"/>
<path d="M580 3239 c-19 -4 -103 -24 -187 -43 -242 -56 -236 -53 -229 -81 5
-20 2 -26 -19 -31 -33 -8 -33 -29 6 -196 17 -73 38 -168 47 -211 l17 -78 33 6
c30 6 33 4 38 -25 4 -17 9 -32 13 -34 5 -3 35 2 166 31 l40 9 6 84 c4 47 10
109 14 138 8 53 8 53 -17 47 -36 -9 -78 28 -78 69 0 30 14 56 31 56 4 0 12
-13 19 -30 20 -47 70 -53 70 -7 0 24 65 229 86 269 8 15 14 29 14 33 0 7 -27
5 -70 -6z"/>
<path d="M1063 3230 c-34 -14 -28 -21 7 -9 17 6 30 13 30 15 0 6 -12 4 -37 -6z"/>
<path d="M3860 3227 c0 -4 9 -21 20 -39 11 -18 20 -27 20 -20 0 8 -9 25 -20
39 -11 14 -20 23 -20 20z"/>
<path d="M706 3173 c-6 -14 -5 -15 5 -6 7 7 10 15 7 18 -3 3 -9 -2 -12 -12z"/>
<path d="M740 3170 c0 -5 5 -10 11 -10 5 0 7 5 4 10 -3 6 -8 10 -11 10 -2 0
-4 -4 -4 -10z"/>
<path d="M977 3173 c-4 -3 -7 -11 -7 -17 0 -6 5 -5 12 2 6 6 9 14 7 17 -3 3
-9 2 -12 -2z"/>
<path d="M4036 3163 c-6 -14 -5 -15 5 -6 7 7 10 15 7 18 -3 3 -9 -2 -12 -12z"/>
<path d="M3901 3130 c14 -31 19 -36 19 -24 0 6 -7 19 -16 30 -14 18 -14 18 -3
-6z"/>
<path d="M4012 3130 c0 -14 2 -19 5 -12 2 6 2 18 0 25 -3 6 -5 1 -5 -13z"/>
<path d="M690 3125 c0 -8 2 -15 4 -15 2 0 6 7 10 15 3 8 1 15 -4 15 -6 0 -10
-7 -10 -15z"/>
<path d="M920 3106 c0 -8 -4 -16 -9 -18 -5 -1 -3 -9 5 -16 11 -10 14 -10 14 2
0 8 3 21 6 30 3 9 1 16 -5 16 -6 0 -11 -6 -11 -14z"/>
<path d="M673 3085 c0 -8 4 -12 9 -9 5 3 6 10 3 15 -9 13 -12 11 -12 -6z"/>
<path d="M3986 3067 c3 -10 9 -15 12 -12 3 3 0 11 -7 18 -10 9 -11 8 -5 -6z"/>
<path d="M4081 3070 c0 -8 4 -24 9 -35 5 -13 9 -14 9 -5 0 8 -4 24 -9 35 -5
13 -9 14 -9 5z"/>
<path d="M900 3040 c0 -19 3 -21 12 -12 9 9 9 15 0 24 -9 9 -12 7 -12 -12z"/>
<path d="M3960 3051 c0 -10 19 -25 25 -20 1 2 -3 10 -11 17 -8 7 -14 8 -14 3z"/>
<path d="M661 3045 c1 -19 18 -51 18 -35 0 8 -4 22 -9 30 -5 8 -9 11 -9 5z"/>
<path d="M3940 3045 c0 -5 5 -17 10 -25 5 -8 10 -10 10 -5 0 6 -5 17 -10 25
-5 8 -10 11 -10 5z"/>
<path d="M690 3021 c0 -6 4 -13 10 -16 6 -3 7 1 4 9 -7 18 -14 21 -14 7z"/>
<path d="M896 2997 c3 -10 9 -15 12 -12 3 3 0 11 -7 18 -10 9 -11 8 -5 -6z"/>
<path d="M4095 3000 c-3 -5 -1 -10 4 -10 6 0 11 5 11 10 0 6 -2 10 -4 10 -3 0
-8 -4 -11 -10z"/>
<path d="M4096 2920 c-10 -19 -34 -50 -53 -68 -27 -25 -34 -38 -29 -55 16 -58
28 -210 22 -277 -8 -91 -43 -289 -61 -345 -7 -22 -29 -94 -49 -160 -20 -66
-50 -146 -67 -179 -17 -32 -28 -60 -26 -62 2 -2 10 7 17 21 7 14 17 25 22 25
4 0 8 5 8 12 0 6 7 19 15 28 17 19 55 87 103 185 44 89 99 265 120 380 18 101
21 409 5 485 l-9 45 -18 -35z"/>
<path d="M621 2914 c0 -11 3 -14 6 -6 3 7 2 16 -1 19 -3 4 -6 -2 -5 -13z"/>
<path d="M610 2854 c0 -14 4 -23 9 -20 5 3 7 15 4 26 -7 28 -13 25 -13 -6z"/>
<path d="M901 2865 c0 -11 8 -38 18 -60 11 -22 20 -33 20 -24 1 9 -2 19 -6 23
-5 4 -13 24 -19 44 -7 22 -12 29 -13 17z"/>
<path d="M602 2738 c-1 -14 -5 -35 -8 -45 -5 -14 -4 -15 5 -7 7 7 11 26 8 45
-3 28 -4 29 -5 7z"/>
<path d="M1011 2674 c0 -11 3 -14 6 -6 3 7 2 16 -1 19 -3 4 -6 -2 -5 -13z"/>
<path d="M3626 2615 c-98 -56 -266 -102 -546 -150 -109 -19 -416 -46 -620 -56
-335 -15 -719 9 -929 57 -57 13 -69 13 -116 -2 l-53 -17 25 -91 c78 -288 209
-500 406 -657 27 -22 52 -39 57 -39 4 0 10 29 12 64 7 80 43 149 113 215 67
64 130 95 235 116 136 28 288 10 374 -43 l38 -24 32 30 c48 46 137 99 207 123
56 19 79 21 194 16 123 -4 133 -6 194 -37 88 -46 190 -151 221 -228 7 -17 92
127 139 236 41 93 82 259 102 410 10 80 10 95 -2 103 -19 12 -16 13 -83 -26z"/>
<path d="M1003 2480 c0 -47 2 -66 4 -42 2 23 2 61 0 85 -2 23 -4 4 -4 -43z"/>
<path d="M486 2501 c-3 -5 -3 -16 0 -25 4 -10 1 -16 -7 -16 -9 0 -10 -3 -4 -8
6 -4 11 -34 11 -67 1 -93 25 -195 46 -195 14 0 16 7 11 38 -3 20 -9 53 -14 72
-5 19 -12 72 -16 118 -6 78 -14 104 -27 83z"/>
<path d="M590 2456 c0 -8 4 -17 9 -20 5 -4 7 3 4 14 -6 23 -13 26 -13 6z"/>
<path d="M143 2438 c-13 -6 -23 -20 -23 -30 0 -17 2 -17 30 4 45 33 40 49 -7
26z"/>
<path d="M826 2384 c-9 -8 -16 -20 -16 -25 0 -6 -10 -8 -22 -4 -13 3 -18 3
-13 -2 6 -5 13 -12 16 -16 3 -4 18 8 33 28 28 36 29 46 2 19z"/>
<path d="M730 2283 l-25 -25 28 17 c15 10 27 21 27 26 0 12 -2 11 -30 -18z"/>
<path d="M621 2244 c0 -11 3 -14 6 -6 3 7 2 16 -1 19 -3 4 -6 -2 -5 -13z"/>
<path d="M679 2233 c-13 -16 -12 -17 4 -4 9 7 17 15 17 17 0 8 -8 3 -21 -13z"/>
<path d="M635 2219 c-9 -26 1 -37 18 -19 10 10 9 11 -2 5 -10 -6 -12 -2 -6 14
3 11 4 21 1 21 -2 0 -8 -9 -11 -21z"/>
<path d="M1010 2226 c0 -8 5 -18 10 -21 6 -3 10 1 10 9 0 8 -4 18 -10 21 -5 3
-10 -1 -10 -9z"/>
<path d="M989 2201 c7 -5 10 -14 7 -20 -4 -6 0 -11 8 -11 9 0 16 4 16 8 0 12
-22 32 -34 32 -6 0 -5 -4 3 -9z"/>
<path d="M468 2183 c7 -3 16 -2 19 1 4 3 -2 6 -13 5 -11 0 -14 -3 -6 -6z"/>
<path d="M945 2170 c3 -5 8 -10 11 -10 2 0 4 5 4 10 0 6 -5 10 -11 10 -5 0 -7
-4 -4 -10z"/>
<path d="M850 2110 c-19 -16 -30 -30 -24 -30 6 0 21 11 34 25 13 14 30 23 38
20 7 -2 10 0 7 5 -9 15 -17 12 -55 -20z"/>
<path d="M210 2080 c-14 -4 -40 -8 -57 -9 -31 -1 -33 -3 -33 -36 0 -34 1 -34
33 -28 33 6 72 35 88 66 10 18 7 19 -31 7z"/>
<path d="M789 2063 c-13 -16 -12 -17 4 -4 9 7 17 15 17 17 0 8 -8 3 -21 -13z"/>
<path d="M1047 2051 c-4 -17 -3 -21 5 -13 5 5 8 16 6 23 -3 8 -7 3 -11 -10z"/>
<path d="M710 2015 c-10 -12 -5 -30 30 -97 35 -69 91 -159 110 -178 3 -3 18
-23 34 -45 17 -22 39 -49 50 -61 12 -12 52 -53 91 -93 38 -39 75 -69 82 -67 7
3 12 0 10 -6 -3 -15 113 -110 211 -170 45 -28 81 -54 79 -57 -2 -3 -9 -21 -16
-39 l-14 -34 -61 8 c-33 5 -73 8 -88 9 -14 0 -24 3 -22 6 3 5 -124 29 -154 29
-4 0 -7 -44 -7 -98 0 -87 -3 -103 -29 -154 -16 -32 -46 -74 -67 -95 -36 -36
-43 -60 -13 -49 8 3 11 0 8 -9 -4 -8 7 -20 28 -31 18 -9 48 -28 65 -42 18 -13
44 -25 57 -26 13 0 22 -4 20 -7 -4 -8 142 -87 194 -105 18 -6 38 -16 45 -22 6
-5 46 -21 86 -36 41 -14 78 -32 83 -39 4 -6 8 -46 8 -88 l0 -76 73 -11 c162
-25 171 -26 163 -5 -4 10 -14 50 -21 89 -20 104 0 286 43 389 29 70 93 189
113 211 10 11 19 25 19 31 0 26 38 41 120 48 l86 6 29 61 c50 102 133 145 247
127 68 -11 126 -53 156 -113 23 -47 24 -47 65 -41 47 6 301 30 417 40 53 4 71
3 60 -4 -19 -14 -15 -13 45 2 28 7 62 12 77 11 20 -2 36 6 60 32 83 89 247
194 303 194 18 0 18 1 2 18 -20 20 -41 20 -252 3 -77 -6 -205 -15 -285 -21
-80 -6 -257 -19 -395 -30 -137 -11 -286 -22 -330 -25 -141 -9 -664 -51 -750
-61 -46 -4 -54 -2 -90 27 -70 57 -179 174 -220 235 -22 32 -42 61 -45 64 -10
10 -38 64 -68 130 -46 104 -55 120 -62 115 -5 -3 -11 -1 -15 4 -3 6 -13 7 -22
4 -12 -5 -14 -3 -8 7 5 8 4 11 -2 7 -5 -3 -54 17 -109 45 -54 28 -111 57 -126
65 -15 8 -30 18 -33 24 -9 14 -51 11 -65 -6z m695 -928 c11 -2 21 -6 23 -7 2
-2 14 -6 30 -9 4 -1 0 -6 -8 -12 -12 -8 -10 -9 9 -4 15 5 26 2 31 -6 5 -7 9
-91 10 -187 0 -96 3 -179 7 -185 4 -7 -9 -8 -38 -3 -24 4 -45 11 -47 16 -2 6
-12 10 -22 10 -10 0 -21 4 -24 9 -3 4 -18 11 -33 14 -16 3 -37 14 -48 25 -12
10 -32 22 -46 25 -14 4 -41 18 -60 32 -19 14 -42 28 -51 31 -10 4 -18 9 -18
13 0 3 -3 15 -6 27 -4 14 6 32 34 63 22 24 50 64 62 90 32 66 45 73 115 67 33
-2 69 -7 80 -9z"/>
<path d="M1057 2013 c-4 -3 -7 -13 -7 -22 1 -13 3 -13 11 2 11 19 8 33 -4 20z"/>
<path d="M685 1770 c-17 -19 -17 -19 14 -15 28 3 30 2 21 -16 -6 -10 -16 -19
-23 -19 -8 0 -7 4 3 10 8 5 11 12 7 16 -4 4 -13 2 -19 -4 -19 -19 6 -39 27
-22 10 8 15 9 15 1 0 -6 4 -10 9 -8 4 1 18 -9 30 -23 l21 -25 -21 37 c-11 21
-26 35 -31 32 -6 -4 -8 -1 -6 7 6 16 -8 49 -21 49 -4 0 -16 -9 -26 -20z"/>
<path d="M806 1647 c3 -10 9 -15 12 -12 3 3 0 11 -7 18 -10 9 -11 8 -5 -6z"/>
<path d="M387 1623 c-4 -3 1 -12 11 -20 9 -8 12 -12 6 -9 -16 8 -72 -22 -84
-43 -5 -10 -52 -62 -105 -115 -86 -88 -112 -126 -86 -126 16 0 22 18 9 24 -7
4 -3 4 9 2 13 -2 23 1 23 7 0 7 16 25 35 42 33 28 49 55 23 39 -7 -5 -8 -3 -3
5 5 9 10 10 18 2 11 -11 37 28 37 56 0 8 4 12 10 8 5 -3 8 -11 7 -18 -2 -7 1
-2 7 11 5 12 13 22 18 22 16 0 58 45 54 57 -7 16 11 27 20 12 5 -8 3 -9 -6 -4
-8 5 -11 4 -7 -3 9 -14 47 -3 47 13 0 36 -24 57 -43 38z"/>
<path d="M844 1580 c0 -9 7 -17 16 -16 8 1 14 -4 13 -11 -1 -6 18 -29 44 -50
74 -62 114 -105 146 -156 20 -32 32 -45 37 -36 5 7 -2 21 -19 35 -14 13 -20
24 -13 24 7 0 15 -7 18 -15 3 -8 15 -17 26 -21 16 -5 18 -8 7 -15 -20 -12 -1
-25 46 -33 l40 -7 -28 15 c-15 8 -35 12 -45 9 -14 -6 -15 -4 -5 8 9 12 3 22
-38 54 -27 22 -74 66 -105 97 -31 31 -61 56 -67 55 -6 -1 -12 3 -12 8 -3 22
-18 45 -39 58 -19 13 -22 13 -22 -3z"/>
<path d="M3914 1462 c3 -5 0 -13 -6 -15 -9 -4 -10 -6 -1 -6 17 -1 25 16 12 25
-7 4 -9 3 -5 -4z"/>
<path d="M4180 1341 c0 -5 7 -12 16 -15 14 -5 15 -4 4 9 -14 17 -20 19 -20 6z"/>
<path d="M3159 1143 c-13 -15 -12 -15 9 -4 23 12 28 21 13 21 -5 0 -15 -7 -22
-17z"/>
<path d="M3043 1140 c-30 -12 -29 -18 2 -12 14 2 25 8 25 13 0 5 -1 9 -2 8 -2
0 -13 -4 -25 -9z"/>
<path d="M130 1130 c0 -5 5 -10 11 -10 5 0 7 5 4 10 -3 6 -8 10 -11 10 -2 0
-4 -4 -4 -10z"/>
<path d="M3124 1132 c3 -6 -2 -17 -12 -24 -19 -13 -42 -49 -42 -65 0 -4 10 7
21 25 12 17 25 32 29 32 13 0 20 29 8 36 -6 4 -8 3 -4 -4z"/>
<path d="M2969 1103 c-13 -15 -12 -15 11 -3 34 17 36 20 18 20 -9 0 -22 -7
-29 -17z"/>
<path d="M234 1018 c19 -64 39 -120 53 -147 11 -23 9 -27 -17 -45 -16 -12 -30
-25 -30 -30 0 -4 15 3 33 16 31 24 82 44 73 29 -3 -4 4 -14 15 -21 10 -8 19
-20 19 -27 0 -7 4 -13 9 -13 6 0 9 -9 8 -20 -1 -11 -5 -20 -10 -20 -5 0 -4 -6
2 -13 6 -8 7 -18 3 -22 -4 -5 -2 -5 5 -2 16 10 43 -2 43 -19 0 -12 19 -19 43
-15 5 1 6 -3 3 -8 -4 -6 7 -8 26 -5 18 3 65 -1 103 -9 l70 -15 35 34 35 35
-50 -2 c-119 -6 -220 36 -311 127 -45 46 -69 81 -89 131 -40 96 -97 145 -71
61z"/>
<path d="M4457 1025 c-19 -26 -5 -47 16 -25 9 10 9 11 0 6 -16 -9 -17 6 -1 22
6 6 10 14 7 16 -2 2 -12 -6 -22 -19z"/>
<path d="M2925 1030 c-3 -6 1 -7 9 -4 18 7 21 14 7 14 -6 0 -13 -4 -16 -10z"/>
<path d="M2346 975 c-16 -16 -22 -55 -9 -55 24 0 83 36 81 50 -4 21 -52 25
-72 5z"/>
<path d="M2760 975 c0 -2 10 -10 23 -16 20 -11 21 -11 8 4 -13 16 -31 23 -31
12z"/>
<path d="M3051 954 c0 -11 3 -14 6 -6 3 7 2 16 -1 19 -3 4 -6 -2 -5 -13z"/>
<path d="M4464 955 c-3 -8 -1 -27 4 -42 9 -26 10 -25 9 15 -1 45 -4 51 -13 27z"/>
<path d="M2700 939 c-22 -18 -22 -19 -3 -10 12 6 25 16 28 21 9 15 3 12 -25
-11z"/>
<path d="M2770 942 c0 -7 5 -12 11 -12 5 0 8 -4 5 -8 -2 -4 0 -14 5 -22 7 -11
8 -10 6 8 -4 25 -27 55 -27 34z"/>
<path d="M2715 920 c-10 -11 -16 -20 -13 -20 3 0 15 9 28 20 13 11 19 20 13
20 -5 0 -18 -9 -28 -20z"/>
<path d="M3046 907 c3 -10 9 -15 12 -12 3 3 0 11 -7 18 -10 9 -11 8 -5 -6z"/>
<path d="M2731 883 c42 -55 62 -76 56 -59 -9 24 -50 75 -61 75 -5 1 -2 -7 5
-16z"/>
<path d="M3086 844 c-4 -9 -4 -19 -1 -22 3 -3 5 0 5 7 0 7 4 9 10 6 6 -3 7 1
4 9 -8 20 -10 20 -18 0z"/>
<path d="M133 812 c-6 -4 12 -17 39 -29 35 -16 46 -18 38 -8 -7 8 -18 15 -26
15 -7 0 -19 6 -27 14 -7 8 -18 11 -24 8z"/>
<path d="M3020 774 c-38 -14 -82 -23 -107 -21 -22 1 -39 -1 -36 -5 4 -8 -27
-12 -54 -9 -15 2 -18 -95 -4 -104 11 -6 223 47 266 67 23 10 26 17 23 52 -2
21 -7 40 -13 41 -5 2 -39 -8 -75 -21z"/>
<path d="M340 705 c0 -2 15 -12 33 -20 l32 -16 -25 20 c-24 20 -40 26 -40 16z"/>
<path d="M448 653 c7 -3 16 -2 19 1 4 3 -2 6 -13 5 -11 0 -14 -3 -6 -6z"/>
<path d="M3574 486 c-49 -22 -59 -75 -23 -132 19 -31 19 -35 5 -63 -24 -45
-20 -60 19 -77 52 -21 72 -18 80 14 11 46 32 69 69 76 64 12 76 82 25 140 -45
52 -114 68 -175 42z"/>
</g>
</svg>
